<svg xmlns="http://www.w3.org/2000/svg" viewBox="0 0 1000 1000" xml:space="preserve"><switch><g><circle fill="#382B73" cx="500" cy="500" r="398"/><circle fill="#473080" cx="500" cy="500" r="344.3"/><path fill="#382B73" d="M649.9 278.3H350.1c-14.3 0-25.9 11.6-25.9 25.9v431.5c0 14.3 11.6 25.9 25.9 25.9h211.4l114.3-114.3v-343c0-14.4-11.6-26-25.9-26z"/><g><path fill="#EF5A9D" d="M675.8 627.4V284.3c0-14.3-11.6-25.9-25.9-25.9H350.1c-14.3 0-25.9 11.6-25.9 25.9v431.5c0 14.3 11.6 25.9 25.9 25.9h211.4l114.3-114.3z"/><path fill="#FFF" d="M643 277.7H357c-8.3 0-15 6.7-15 15V705.5c0 8.3 6.7 15 15 15h214.5L658 630V292.6c0-8.2-6.7-14.9-15-14.9z"/><path fill="#D1D3D4" d="M382.4 415.5h114.1c8.8 0 15.9-7.1 15.9-15.9s-7.1-15.9-15.9-15.9H382.4c-8.8 0-15.9 7.1-15.9 15.9s7.1 15.9 15.9 15.9z"/><path fill="#FEDE3A" d="M382.4 405.5h114.1c8.8 0 15.9-7.1 15.9-15.9s-7.1-15.9-15.9-15.9H382.4c-8.8 0-15.9 7.1-15.9 15.9s7.1 15.9 15.9 15.9z"/><path fill="#FFC733" d="M496.6 389.6H382.4c-5.9 0-11.1-3.2-13.8-8-1.3 2.3-2.1 5-2.1 7.9 0 8.8 7.1 15.9 15.9 15.9h114.1c8.8 0 15.9-7.1 15.9-15.9 0-2.9-.8-5.6-2.1-7.9-2.7 4.8-7.8 8-13.7 8z"/><path fill="#D1D3D4" d="M382.4 479.1h234.1c8.8 0 15.9-7.1 15.9-15.9s-7.1-15.9-15.9-15.9H382.4c-8.8 0-15.9 7.1-15.9 15.9s7.1 15.9 15.9 15.9z"/><path fill="#FEDE3A" d="M382.4 469.1h234.1c8.8 0 15.9-7.1 15.9-15.9s-7.1-15.9-15.9-15.9H382.4c-8.8 0-15.9 7.1-15.9 15.9s7.1 15.9 15.9 15.9z"/><path fill="#FFC733" d="M616.6 453.2H382.4c-5.9 0-11.1-3.2-13.8-8-1.3 2.3-2.1 5-2.1 7.9 0 8.8 7.1 15.9 15.9 15.9h234.1c8.8 0 15.9-7.1 15.9-15.9 0-2.9-.8-5.6-2.1-7.9-2.7 4.8-7.8 8-13.7 8z"/><g><path fill="#D1D3D4" d="M382.4 542.7h234.1c8.8 0 15.9-7.1 15.9-15.9s-7.1-15.9-15.9-15.9H382.4c-8.8 0-15.9 7.1-15.9 15.9s7.1 15.9 15.9 15.9z"/><path fill="#FEDE3A" d="M382.4 532.7h234.1c8.8 0 15.9-7.1 15.9-15.9s-7.1-15.9-15.9-15.9H382.4c-8.8 0-15.9 7.1-15.9 15.9s7.1 15.9 15.9 15.9z"/><path fill="#FFC733" d="M616.6 516.9H382.4c-5.9 0-11.1-3.2-13.8-8-1.3 2.3-2.1 5-2.1 7.9 0 8.8 7.1 15.9 15.9 15.9h234.1c8.8 0 15.9-7.1 15.9-15.9 0-2.9-.8-5.6-2.1-7.9-2.7 4.7-7.8 8-13.7 8z"/></g><g><path fill="#D1D3D4" d="M382.4 606.3h234.1c8.8 0 15.9-7.1 15.9-15.9s-7.1-15.9-15.9-15.9H382.4c-8.8 0-15.9 7.1-15.9 15.9s7.1 15.9 15.9 15.9z"/><path fill="#FEDE3A" d="M382.4 596.3h234.1c8.8 0 15.9-7.1 15.9-15.9s-7.1-15.9-15.9-15.9H382.4c-8.8 0-15.9 7.1-15.9 15.9s7.1 15.9 15.9 15.9z"/><path fill="#FFC733" d="M616.6 580.5H382.4c-5.9 0-11.1-3.2-13.8-8-1.3 2.3-2.1 5-2.1 7.9 0 8.8 7.1 15.9 15.9 15.9h234.1c8.8 0 15.9-7.1 15.9-15.9 0-2.9-.8-5.6-2.1-7.9-2.7 4.7-7.8 8-13.7 8z"/></g><g><path fill="#D1D3D4" d="M617.5 415.5H552c-8.3 0-15-6.7-15-15V335c0-8.3 6.7-15 15-15h65.5c8.3 0 15 6.7 15 15v65.5c0 8.3-6.7 15-15 15z"/><path fill="#1CAEE4" d="M617.5 405.5H552c-8.3 0-15-6.7-15-15V325c0-8.3 6.7-15 15-15h65.5c8.3 0 15 6.7 15 15v65.5c0 8.3-6.7 15-15 15z"/><path fill="#177BC0" d="M556 383.6c-6.6 0-12.9-.8-19-2.2v9.1c0 8.3 6.7 15 15 15h65.5c8.3 0 15-6.7 15-15V333c-12.6 29.7-42.1 50.6-76.5 50.6z"/><circle fill="#FFF" cx="584.8" cy="341.9" r="18.2"/><path fill="#FFF" d="M584.8 356.6c-19.5 0-35.2 15.8-35.2 35.2H620c0-19.4-15.8-35.2-35.2-35.2z"/></g><g><path fill="#A72973" d="m561.5 741.7 114.3-114.3h-92.7c-11.9 0-21.6 9.7-21.6 21.6v92.7z"/></g></g></g></switch></svg>